<?xml version="1.0" encoding="UTF-8" standalone="no"?>
<!-- Created with Inkscape (http://www.inkscape.org/) -->

<svg
   xmlns:dc="http://purl.org/dc/elements/1.1/"
   xmlns:cc="http://creativecommons.org/ns#"
   xmlns:rdf="http://www.w3.org/1999/02/22-rdf-syntax-ns#"
   xmlns:svg="http://www.w3.org/2000/svg"
   xmlns="http://www.w3.org/2000/svg"
   xmlns:sodipodi="http://sodipodi.sourceforge.net/DTD/sodipodi-0.dtd"
   xmlns:inkscape="http://www.inkscape.org/namespaces/inkscape"
   width="740"
   height="1050"
   id="svg2"
   version="1.1"
   inkscape:version="0.48.4 r9939"
   sodipodi:docname="Undermountain.svg">
  <defs
     id="defs4">
    <pattern
       inkscape:stockid="stairs e/w"
       id="pattern-stairs-ew"
       height="1"
       width="2"
       patternUnits="userSpaceOnUse">
      <rect
         id="stairs_ew_step"
         height="1"
         width="1"
         y="0"
         x="0"
         style="fill:black;stroke:none" />
    </pattern>
    <pattern
       inkscape:stockid="stairs n/s"
       id="pattern-stairs-ns"
       height="2"
       width="1"
       patternUnits="userSpaceOnUse">
      <rect
         id="stairs_ns_step"
         height="1"
         width="1"
         y="0"
         x="0"
         style="fill:black;stroke:none" />
    </pattern>
  </defs>
  <sodipodi:namedview
     id="base"
     pagecolor="#ffffff"
     bordercolor="#666666"
     borderopacity="1.0"
     inkscape:pageopacity="0.0"
     inkscape:pageshadow="2"
     inkscape:zoom="8.01"
     inkscape:cx="-87.014262"
     inkscape:cy="236.69582"
     inkscape:document-units="px"
     inkscape:current-layer="layer1"
     showgrid="true"
     showborder="false"
     inkscape:window-width="1366"
     inkscape:window-height="706"
     inkscape:window-x="-8"
     inkscape:window-y="-8"
     inkscape:window-maximized="1">
    <inkscape:grid
       type="xygrid"
       id="grid2985"
       empspacing="10"
       visible="true"
       enabled="true"
       snapvisiblegridlinesonly="false"
       empcolor="#0000a1"
       empopacity="0.25098039"
       color="#5555ff"
       opacity="0.1254902" />
  </sodipodi:namedview>
  <metadata
     id="metadata7">
    <rdf:RDF>
      <cc:Work
         rdf:about="">
        <dc:format>image/svg+xml</dc:format>
        <dc:type
           rdf:resource="http://purl.org/dc/dcmitype/StillImage" />
        <dc:title />
      </cc:Work>
    </rdf:RDF>
  </metadata>
  <g
     inkscape:label="Layer 1"
     inkscape:groupmode="layer"
     id="layer1">
    <rect
       style="fill:#edd667;fill-opacity:1;stroke:none"
       id="rect3092"
       width="10"
       height="100.13144"
       x="-60"
       y="749.86853" />
    <rect
       style="fill:#edd667;fill-opacity:1;stroke:none"
       id="rect3088"
       width="10"
       height="10"
       x="-50"
       y="800" />
    <rect
       style="fill:#edd667;fill-opacity:1;stroke:none"
       id="rect3086"
       width="10"
       height="20"
       x="-40"
       y="800" />
    <rect
       style="fill:#edd667;fill-opacity:1;stroke:none"
       id="rect3084"
       width="30"
       height="10"
       x="-50"
       y="840" />
    <rect
       style="fill:#edd667;fill-opacity:1;stroke:none"
       id="rect3082"
       width="30"
       height="10"
       x="-50"
       y="820" />
    <rect
       style="fill:#edd667;fill-opacity:1;stroke:none"
       id="rect3078"
       width="40"
       height="10"
       x="-60"
       y="920" />
    <rect
       style="fill:#edd667;fill-opacity:1;stroke:none"
       id="rect3072"
       width="10"
       height="150.08557"
       x="-20"
       y="819.91443" />
    <rect
       style="fill:#edd667;fill-opacity:1;stroke:none"
       id="rect3070"
       width="10"
       height="30"
       x="-30"
       y="960" />
    <rect
       style="fill:#edd667;fill-opacity:1;stroke:none"
       id="rect3880"
       width="20"
       height="10"
       x="-200"
       y="1260" />
    <rect
       style="fill:#edd667;fill-opacity:1;stroke:none"
       id="rect3878"
       width="50"
       height="10"
       x="-200"
       y="1300" />
    <rect
       style="fill:#edd667;fill-opacity:1;stroke:none"
       id="rect3876"
       width="10"
       height="30"
       x="-30"
       y="1300" />
    <rect
       style="fill:#edd667;fill-opacity:1;stroke:none"
       id="rect3874"
       width="60"
       height="10"
       x="-90"
       y="1320" />
    <rect
       style="fill:#edd667;fill-opacity:1;stroke:none"
       id="rect3872"
       width="10"
       height="30"
       x="-100"
       y="1300" />
    <rect
       style="fill:#edd667;fill-opacity:1;stroke:none"
       id="rect3870"
       width="40"
       height="10"
       x="-140"
       y="1300" />
    <rect
       style="fill:#edd667;fill-opacity:1;stroke:none"
       id="rect3868"
       width="10"
       height="50"
       x="-150"
       y="1260" />
    <rect
       style="fill:#edd667;fill-opacity:1;stroke:none"
       id="rect3866"
       width="10"
       height="10"
       x="-140"
       y="1260" />
    <rect
       style="fill:#edd667;fill-opacity:1;stroke:none"
       id="rect3864"
       width="10"
       height="20"
       x="-160"
       y="1260" />
    <rect
       style="fill:#edd667;fill-opacity:1;stroke:none;stroke-width:0.50000000000000000;stroke-miterlimit:4;stroke-opacity:1;stroke-dasharray:none"
       id="rect3862"
       width="10"
       height="20"
       x="-170"
       y="1100" />
    <rect
       style="fill:#edb667;fill-opacity:1;stroke:none"
       id="rect3852"
       width="20"
       height="50"
       x="-180"
       y="1230" />
    <rect
       style="fill:#edd567;fill-opacity:1;stroke:none"
       id="rect3850"
       width="10"
       height="40"
       x="-200"
       y="1190" />
    <rect
       style="fill:#edd567;fill-opacity:1;stroke:none"
       id="rect3848"
       width="10"
       height="10"
       x="-190"
       y="1190" />
    <rect
       style="fill:#edd567;fill-opacity:1;stroke:none"
       id="rect3846"
       width="20"
       height="10"
       x="-160"
       y="1230" />
    <rect
       style="fill:#edd567;fill-opacity:1;stroke:none"
       id="rect3844"
       width="10"
       height="40"
       x="-140"
       y="1200" />
    <rect
       style="fill:#edd567;fill-opacity:1;stroke:none"
       id="rect3074"
       width="30"
       height="10"
       x="-170"
       y="1210" />
    <rect
       style="fill:#edd567;fill-opacity:1;stroke:none"
       id="floor-corr-4-1"
       width="10"
       height="140"
       x="-180"
       y="1080" />
    <rect
       style="fill:#edd467;fill-opacity:1;stroke:none"
       id="floor-corr-3"
       width="90"
       height="20"
       x="-150"
       y="1050" />
    <rect
       style="fill:#edb667;fill-opacity:1;fill-rule:evenodd;stroke:none"
       id="mirror-1"
       width="5"
       height="5"
       x="-280"
       y="1055" />
    <rect
       style="fill:#edb667;fill-opacity:1;fill-rule:evenodd;stroke:none"
       id="mirror-2"
       width="5"
       height="5"
       x="-280"
       y="1070" />
    <rect
       style="fill:#edb667;fill-opacity:1;fill-rule:evenodd;stroke:none"
       id="mirror-3"
       width="5"
       height="5"
       x="-270"
       y="1055" />
    <rect
       style="fill:#edb667;fill-opacity:1;fill-rule:evenodd;stroke:none"
       id="mirror-4"
       width="5"
       height="5"
       x="-270"
       y="1070" />
    <rect
       style="fill:#edb667;fill-opacity:1;fill-rule:evenodd;stroke:none"
       id="mirror-5"
       width="5"
       height="5"
       x="-260"
       y="1055" />
    <rect
       style="fill:#edb667;fill-opacity:1;fill-rule:evenodd;stroke:none"
       id="mirror-6"
       width="5"
       height="5"
       x="-260"
       y="1070" />
    <rect
       style="fill:#edb667;fill-opacity:1;fill-rule:evenodd;stroke:none"
       id="mirror-7"
       width="5"
       height="5"
       x="-250"
       y="1055" />
    <rect
       style="fill:#edb667;fill-opacity:1;fill-rule:evenodd;stroke:none"
       id="mirror-8"
       width="5"
       height="5"
       x="-250"
       y="1070" />
    <rect
       style="fill:#edb667;fill-opacity:1;fill-rule:evenodd;stroke:none"
       id="mirror-9"
       width="5"
       height="5"
       x="-240"
       y="1055" />
    <rect
       style="fill:#edb667;fill-opacity:1;fill-rule:evenodd;stroke:none"
       id="mirror-10"
       width="5"
       height="5"
       x="-240"
       y="1070" />
    <rect
       style="fill:#edb667;fill-opacity:1;fill-rule:evenodd;stroke:none"
       id="mirror-11"
       width="5"
       height="5"
       x="-230"
       y="1055" />
    <rect
       style="fill:#edb667;fill-opacity:1;fill-rule:evenodd;stroke:none"
       id="mirror-12"
       width="5"
       height="5"
       x="-230"
       y="1070" />
    <rect
       style="fill:#edb667;fill-opacity:1;fill-rule:evenodd;stroke:none"
       id="mirror-13"
       width="5"
       height="5"
       x="-220"
       y="1055" />
    <rect
       style="fill:#edb667;fill-opacity:1;fill-rule:evenodd;stroke:none"
       id="mirror-14"
       width="5"
       height="5"
       x="-220"
       y="1070" />
    <rect
       style="fill:#edb667;fill-rule:evenodd;stroke:none;stroke-width:1px;stroke-linecap:butt;stroke-linejoin:miter;stroke-opacity:1;fill-opacity:1"
       id="mirror-15"
       width="5"
       height="5"
       x="-210"
       y="1055" />
    <rect
       style="fill:#edb667;fill-opacity:1;fill-rule:evenodd;stroke:none"
       id="mirror-16"
       width="5"
       height="5"
       x="-210"
       y="1070" />
    <rect
       style="fill:#edb667;fill-opacity:1;stroke:none"
       id="floor-mirror-hall"
       width="85"
       height="10"
       x="-285"
       y="1060"
       inkscape:label="#floor-mirror-hall" />
    <rect
       style="fill:#edd567;fill-opacity:1;stroke:none"
       id="floor-corr-7"
       width="60"
       height="10"
       x="-80"
       y="990" />
    <rect
       style="fill:#edd567;fill-opacity:1;stroke:none"
       id="floor-corr-6"
       width="10"
       height="20"
       x="-20"
       y="990" />
    <rect
       style="fill:#edd567;fill-opacity:1;stroke:none"
       id="floor-corr-4"
       width="10"
       height="60.076271"
       x="-180"
       y="980" />
    <rect
       style="fill:#edd567;fill-opacity:1;stroke:none"
       id="floor-corr-5"
       width="20"
       height="10"
       x="-170"
       y="1010" />
    <rect
       style="fill:#d3ed67;fill-opacity:1;stroke:none;stroke-width:0.50000000000000000;stroke-miterlimit:4;stroke-opacity:1;stroke-dasharray:none"
       id="floor-shield-room"
       width="40"
       height="40"
       x="-20"
       y="1010"
       inkscape:label="#floor-shield-room" />
    <path
       style="fill:#ed7767;fill-opacity:1;stroke:none"
       d="m -190,1050 10,-10 10,0 20,10 0,20 -20,10 -10,0 -10,-10 z"
       id="floor-null-magic"
       inkscape:connector-curvature="0"
       sodipodi:nodetypes="ccccccccc"
       inkscape:label="#floor-null-magic" />
    <rect
       style="fill:#edb667;fill-opacity:1;stroke:none"
       id="floor-dexter-dance"
       width="30"
       height="20"
       x="-150"
       y="1080"
       inkscape:label="#floor-dexter-dance" />
    <rect
       style="fill:#edb667;fill-opacity:1;stroke:none"
       id="rect5365"
       width="10"
       height="10"
       x="-130"
       y="1070" />
    <rect
       style="fill:#edb667;fill-opacity:1;stroke:none"
       id="rect5363"
       width="10"
       height="10"
       x="-110"
       y="1040" />
    <rect
       style="fill:#edb667;fill-opacity:1;stroke:none"
       id="floor-demon-gate"
       width="50"
       height="30"
       x="-150"
       y="1010"
       inkscape:label="#floor-demon-gate" />
    <path
       style="fill:url(#pattern-stairs-ew);fill-opacity:1;stroke:none"
       d="m -150,1054 10,-4 0,20 -10,-4 z"
       id="stairs-null-magic-1"
       inkscape:connector-curvature="0"
       sodipodi:nodetypes="ccccc" />
    <rect
       style="fill:#edd467;fill-opacity:1;stroke:none"
       id="floor-corr-2"
       width="40"
       height="10"
       x="-70"
       y="1070" />
    <rect
       style="fill:#edd567;fill-opacity:1;stroke:none"
       id="floor-corr-1"
       width="10"
       height="50"
       x="-30"
       y="1030" />
    <path
       style="fill:none;stroke:#000000;stroke-width:1px;stroke-linecap:butt;stroke-linejoin:miter;stroke-opacity:1"
       d="m -20,1010 0,20 -10,0 0,40 -30,0 0,-20 -42,0 2,0 0,-40 -50,0 0,2 0,-2 -20,0 0,-20 90,0 0,10 60,0 0,10 2,0 z m -140,110 0,-20 -10,0 0,-20 20,-10 22,0 -2,0 0,10 -20,0 0,20 30,0 0,-30 -2,0 52,0 0,10 50,0 0,-30 40,0 0,-40 -32,0 2,0 0,-20 -10,10e-6 0,-20 c 10,0 10,0 10,0 l 0,-150 -22,0 2,0 0,-20 -20,0 0,2 0,-12 10,0 0,9.99999 12,0 -2,0 0,10 10,0 0,-10 -2,0 12,0 0,-40 -30,0 0,20.00001 -10,0 0,-30 -2,0 52,0 0,-2 0,62 20,20 12,0 -2,0 0,50 -20,0 0,110 10,0 0,9.99999 40,0 0,-9.99999 10,0 0,-110 -20,0 0,-50 -2,0 12,0 20,-20 0,-12 0,2 10,0 0,60 10,0 0,10"
       id="walls-shield-room"
       inkscape:connector-curvature="0"
       sodipodi:nodetypes="ccccccccccccccccccccccccccccccccccccccccccccccccccccccccccccccccccccccccccccccccccccccccccccc" />
    <rect
       style="fill:#e17a1e;fill-rule:evenodd;stroke:#000000;stroke-width:0.50000000000000000;stroke-linecap:butt;stroke-linejoin:miter;stroke-opacity:1;stroke-miterlimit:4;stroke-dasharray:none;fill-opacity:1"
       id="s-door-shield-room"
       width="6"
       height="2"
       x="-18"
       y="1009" />
    <rect
       style="fill:#e17a1e;fill-opacity:1;fill-rule:evenodd;stroke:#000000;stroke-width:0.5;stroke-linecap:butt;stroke-linejoin:miter;stroke-miterlimit:4;stroke-opacity:1;stroke-dasharray:none"
       id="s-door-dexter-dance"
       width="6"
       height="2"
       x="-128"
       y="1069" />
    <rect
       style="fill:#e17a1e;fill-opacity:1;fill-rule:evenodd;stroke:#000000;stroke-width:0.50000000000000000;stroke-linecap:butt;stroke-linejoin:miter;stroke-miterlimit:4;stroke-opacity:1;stroke-dasharray:none"
       id="s-door-demon-gate"
       width="6"
       height="2"
       x="-108"
       y="1049" />
    <rect
       style="fill:#e2c022;fill-opacity:1;fill-rule:evenodd;stroke:#000000;stroke-width:0.50000000000000000;stroke-linecap:butt;stroke-linejoin:miter;stroke-miterlimit:4;stroke-opacity:1;stroke-dasharray:none"
       id="door-demon-gate"
       width="2"
       height="6"
       x="-151"
       y="1012" />
    <path
       style="fill:none;stroke:#000000;stroke-width:1px;stroke-linecap:butt;stroke-linejoin:miter;stroke-opacity:1"
       d="m -108,1050 c -2,0 -2,0 -2,0 l 0,-10 -40,0 0,-22 0,2 -20,0 0,20 20,10 z"
       id="walls-null-magic--demon-gate"
       inkscape:connector-curvature="0"
       sodipodi:nodetypes="cccccccccc" />
    <path
       style="fill:url(#pattern-stairs-ns);fill-opacity:1;stroke:none"
       d="m -172,1080 2,10 -10,0 2,-10 z"
       id="stairs-null-magic-2"
       inkscape:connector-curvature="0"
       sodipodi:nodetypes="ccccc" />
    <path
       style="fill:url(#pattern-stairs-ns);fill-opacity:1;stroke:none"
       d="m -172,1040 2,-10 -10,0 2,10 z"
       id="stairs-null-magic-3"
       inkscape:connector-curvature="0"
       sodipodi:nodetypes="ccccc" />
    <path
       style="fill:url(#pattern-stairs-ew);fill-opacity:1;stroke:none"
       d="m -190,1062 -10,-2 0,10 10,-2 z"
       id="stairs-null-magic-4"
       inkscape:connector-curvature="0"
       sodipodi:nodetypes="ccccc" />
    <path
       style="fill:none;stroke:#000000;stroke-width:1px;stroke-linecap:butt;stroke-linejoin:miter;stroke-opacity:1"
       d="m -180,1142 0,-62 -10,-10 -15,0 0,5 -5,0 0,-5 -5,0 0,5 -5,0 0,-5 -5,0 0,5 -5,0 0,-5 -5,0 0,5 -5,0 0,-5 -5,0 0,5 -5,0 0,-5 -5,0 0,5 -5,0 0,-5 -5,0 0,5 -5,0 0,-5 -5,0 0,5 -5,0 0,-5 -5,0 0,20 10,0 0,-10 35,0 33,0 0,35 -13,0 0,20"
       id="wall-null-magic--mirrors-s"
       inkscape:connector-curvature="0"
       sodipodi:nodetypes="cccccccccccccccccccccccccccccccccccccccccccc" />
    <path
       style="fill:none;stroke:#000000;stroke-width:1px;stroke-linecap:butt;stroke-linejoin:miter;stroke-opacity:1"
       d="m -205,1060 15,0 0,-10 10,-10 0,-20 -60,0 0,20 15,0 0,-10 30,0 0,20 -90,0 0,10 5,0 0,-5 5,0 0,5 5,0 c 0,0 0,-4 0,-5 l 5,0 0,5 5,0 0,-5 5,0 0,5 5,0 0,-5 5,0 0,5 5,0 0,-5 5,0 0,5 5,0 0,-5 5,0 0,5 5,0 0,-5 5,0 0,5 5,0 0,-5 5,0 z"
       id="wall-null-magic--mirrors-n"
       inkscape:connector-curvature="0"
       sodipodi:nodetypes="ccccccccccccccccccccccccccccccccccccccccccccc" />
    <text
       xml:space="preserve"
       style="font-size:6px;font-style:normal;font-variant:normal;font-weight:normal;font-stretch:normal;text-align:start;line-height:125%;letter-spacing:0px;word-spacing:0px;writing-mode:lr-tb;text-anchor:start;fill:#000000;fill-opacity:1;stroke:none;font-family:Sans;-inkscape-font-specification:Sans"
       x="-264"
       y="1066"
       id="text5428"
       sodipodi:linespacing="125%"><tspan
         sodipodi:role="line"
         id="tspan5430"
         x="-264"
         y="1066">Hall Of Mirrors</tspan></text>
    <text
       xml:space="preserve"
       style="font-size:6px;font-style:normal;font-variant:normal;font-weight:normal;font-stretch:normal;text-align:start;line-height:125%;letter-spacing:0px;word-spacing:0px;writing-mode:lr-tb;text-anchor:start;fill:#000000;fill-opacity:1;stroke:none;font-family:Sans;-inkscape-font-specification:Sans"
       x="-186"
       y="1061"
       id="text5434"
       sodipodi:linespacing="125%"><tspan
         sodipodi:role="line"
         id="tspan5436"
         x="-186"
         y="1061">Null Magic</tspan></text>
    <text
       xml:space="preserve"
       style="font-size:6px;font-style:normal;font-variant:normal;font-weight:normal;font-stretch:normal;text-align:start;line-height:125%;letter-spacing:0px;word-spacing:0px;writing-mode:lr-tb;text-anchor:start;fill:#000000;fill-opacity:1;stroke:none;font-family:Sans;-inkscape-font-specification:Sans"
       x="-148"
       y="1026"
       id="text5441"
       sodipodi:linespacing="125%"><tspan
         sodipodi:role="line"
         id="tspan5443"
         x="-148"
         y="1026">Demon Gate</tspan></text>
    <path
       style="fill:none;stroke:#000000;stroke-width:1;stroke-linecap:butt;stroke-linejoin:miter;stroke-opacity:1;stroke-miterlimit:4;stroke-dasharray:3,1;stroke-dashoffset:0"
       d="m -125,1040 0,-30"
       id="bars-1"
       inkscape:connector-curvature="0"
       inkscape:label="#bars-1" />
    <text
       xml:space="preserve"
       style="font-size:6px;font-style:normal;font-variant:normal;font-weight:normal;font-stretch:normal;text-align:start;line-height:125%;letter-spacing:0px;word-spacing:0px;writing-mode:lr-tb;text-anchor:start;fill:#000000;fill-opacity:1;stroke:none;font-family:Sans;-inkscape-font-specification:Sans"
       x="-146"
       y="1088"
       id="text5447"
       sodipodi:linespacing="125%"><tspan
         sodipodi:role="line"
         id="tspan5449"
         x="-146"
         y="1088">Dexter</tspan><tspan
         sodipodi:role="line"
         x="-146"
         y="1095"
         id="tspan5451">Dance</tspan></text>
    <text
       xml:space="preserve"
       style="font-size:6px;font-style:normal;font-variant:normal;font-weight:normal;font-stretch:normal;text-align:start;line-height:125%;letter-spacing:0px;word-spacing:0px;writing-mode:lr-tb;text-anchor:start;fill:#000000;fill-opacity:1;stroke:none;font-family:Sans;-inkscape-font-specification:Sans"
       x="-10"
       y="1028"
       id="text5513"
       sodipodi:linespacing="125%"><tspan
         sodipodi:role="line"
         id="tspan5515"
         x="-10"
         y="1028">Shield</tspan><tspan
         sodipodi:role="line"
         x="-10"
         y="1035"
         id="tspan5517">Room</tspan></text>
    <path
       style="fill:none;stroke:#000000;stroke-width:1px;stroke-linecap:butt;stroke-linejoin:miter;stroke-opacity:1"
       d="m 20,890 0,10 40,0 0,-10 z"
       id="path5539"
       inkscape:connector-curvature="0" />
    <path
       style="fill:none;stroke:#000000;stroke-width:1px;stroke-linecap:butt;stroke-linejoin:miter;stroke-opacity:1"
       d="m -170,1110 0,100 30,0 0,-10"
       id="path3048"
       inkscape:connector-curvature="0" />
    <path
       style="fill:none;stroke:#000000;stroke-width:1px;stroke-linecap:butt;stroke-linejoin:miter;stroke-opacity:1"
       d="m -180,1148 0,42 -20,0 0,30 -20,0"
       id="path3050"
       inkscape:connector-curvature="0" />
    <path
       style="fill:none;stroke:#000000;stroke-width:1px;stroke-linecap:butt;stroke-linejoin:miter;stroke-opacity:1"
       d="m -180,1200 -10,0 0,30 50,0 0,-10 -40,0 z"
       id="path3052"
       inkscape:connector-curvature="0" />
    <path
       style="fill:none;stroke:#000000;stroke-width:1px;stroke-linecap:butt;stroke-linejoin:miter;stroke-opacity:1"
       d="m -130,1200 0,40 -30,0 0,22 0,-2 30,0"
       id="path3054"
       inkscape:connector-curvature="0" />
    <rect
       style="fill:#e2c022;fill-opacity:1;stroke:#000000;stroke-opacity:1;stroke-width:0.50000000000000000;stroke-miterlimit:4;stroke-dasharray:none"
       id="rect3854"
       width="2"
       height="16"
       x="-161"
       y="1262" />
    <path
       style="fill:none;stroke:#000000;stroke-width:1px;stroke-linecap:butt;stroke-linejoin:miter;stroke-opacity:1"
       d="m -130,1270 -10,0 0,30 50,0 0,20 60,0 0,-20 10,0 0,30 -80,0 0,-20 -100,0"
       id="path3856"
       inkscape:connector-curvature="0" />
    <path
       style="fill:none;stroke:#000000;stroke-width:1px;stroke-linecap:butt;stroke-linejoin:miter;stroke-opacity:1"
       d="m -200,1300 50,0 0,-20 -10,0 0,-2 0,2 -20,0 0,-12 0,2 -20,0"
       id="path3858"
       inkscape:connector-curvature="0" />
    <path
       style="fill:none;stroke:#000000;stroke-width:1px;stroke-linecap:butt;stroke-linejoin:miter;stroke-opacity:1"
       d="m -180,1230 0,32 0,-2 -20,0"
       id="path3860"
       inkscape:connector-curvature="0" />
    <path
       style="fill:none;stroke:#000000;stroke-width:1px;stroke-linecap:butt;stroke-linejoin:miter;stroke-opacity:1"
       d="m -30,990 0,-12 0,2 -20,0 0,-10 -10,0 0,20 z"
       id="path3068"
       inkscape:connector-curvature="0" />
    <path
       style="fill:none;stroke:#000000;stroke-width:1px;stroke-linecap:butt;stroke-linejoin:miter;stroke-opacity:1"
       d="m -30,972 0,-12 10,0 0,-30 -40,0 0,-2"
       id="path3074"
       inkscape:connector-curvature="0" />
    <g
       id="g3096" />
    <path
       style="fill:none;stroke:#000000;stroke-width:1px;stroke-linecap:butt;stroke-linejoin:miter;stroke-opacity:1"
       d="m -20,830 0,10 -30,0 0,-10 z"
       id="path3080"
       inkscape:connector-curvature="0" />
    <path
       style="fill:none;stroke:#000000;stroke-width:1px;stroke-linecap:butt;stroke-linejoin:miter;stroke-opacity:1"
       d="m -50,808 0,12 12,0 -2,0 0,-10 -10,0 z"
       id="path3090"
       inkscape:connector-curvature="0" />
    <path
       id="path3094"
       style="fill:none;stroke:#000000;stroke-width:1px;stroke-linecap:butt;stroke-linejoin:miter;stroke-opacity:1"
       d="m -60,922 0,-2 40,0 0,-70 -12,0 2,0 0,40 -20,0 0,-10 10,0 0,-30 2,0 -22,0 0,-100 2,0 -62,0 0,50 -10,0 0,-10 -20,0"
       inkscape:connector-curvature="0"
       sodipodi:nodetypes="cccccccccccc" />
  </g>
</svg>
