<?xml version="1.0" encoding="UTF-8" standalone="no"?>
<!-- Created with Inkscape (http://www.inkscape.org/) -->

<svg
   xmlns:dc="http://purl.org/dc/elements/1.1/"
   xmlns:cc="http://creativecommons.org/ns#"
   xmlns:rdf="http://www.w3.org/1999/02/22-rdf-syntax-ns#"
   xmlns:svg="http://www.w3.org/2000/svg"
   xmlns="http://www.w3.org/2000/svg"
   xmlns:xlink="http://www.w3.org/1999/xlink"
   xmlns:sodipodi="http://sodipodi.sourceforge.net/DTD/sodipodi-0.dtd"
   xmlns:inkscape="http://www.inkscape.org/namespaces/inkscape"
   width="744.09448819"
   height="1052.3622047"
   id="svg2"
   version="1.1"
   inkscape:version="0.48.4 r9939"
   sodipodi:docname="Undermountain.svg">
  <defs
     id="defs4">
    <pattern
       inkscape:stockid="Stripes 1:1"
       id="Strips1_1"
       patternTransform="translate(0,0) scale(5,5)"
       height="1"
       width="2"
       patternUnits="userSpaceOnUse"
       inkscape:collect="always">
      <rect
         id="rect4496"
         height="2"
         width="1"
         y="-0.5"
         x="0"
         style="fill:black;stroke:none" />
    </pattern>
    <pattern
       inkscape:collect="always"
       xlink:href="#Strips1_1"
       id="pattern5359"
       patternTransform="matrix(0.98379782,0,0,1.0821776,-22.977273,0)" />
    <pattern
       patternTransform="matrix(0,0.95920284,-0.52756158,0,342.90157,1206.5782)"
       id="pattern5308"
       xlink:href="#Strips1_1"
       inkscape:collect="always" />
    <pattern
       patternTransform="matrix(0,-0.97150035,-0.52079797,0,336.07431,916.55538)"
       id="pattern5340"
       xlink:href="#pattern5308-4"
       inkscape:collect="always" />
    <pattern
       patternTransform="matrix(0,1.0821776,-0.52079797,0,346.19931,1221.8622)"
       id="pattern5308-4"
       xlink:href="#Strips1_1"
       inkscape:collect="always" />
    <pattern
       patternTransform="matrix(-0.97150035,0,0,0.54785241,-315.55682,529.72883)"
       id="pattern5403"
       xlink:href="#pattern5340-2"
       inkscape:collect="always" />
    <pattern
       patternTransform="matrix(0,-0.97150035,-0.52079797,0,336.07431,916.55538)"
       id="pattern5340-2"
       xlink:href="#pattern5308-4-2"
       inkscape:collect="always" />
    <pattern
       patternTransform="matrix(0,1.0821776,-0.52079797,0,346.19931,1221.8622)"
       id="pattern5308-4-2"
       xlink:href="#Strips1_1"
       inkscape:collect="always" />
  </defs>
  <sodipodi:namedview
     id="base"
     pagecolor="#ffffff"
     bordercolor="#666666"
     borderopacity="1.0"
     inkscape:pageopacity="0.0"
     inkscape:pageshadow="2"
     inkscape:zoom="11.313708"
     inkscape:cx="-255.90978"
     inkscape:cy="-8.7934981"
     inkscape:document-units="px"
     inkscape:current-layer="layer1"
     showgrid="true"
     showborder="false"
     inkscape:window-width="1920"
     inkscape:window-height="1177"
     inkscape:window-x="0"
     inkscape:window-y="2"
     inkscape:window-maximized="1">
    <inkscape:grid
       type="xygrid"
       id="grid2985"
       empspacing="10"
       visible="true"
       enabled="true"
       snapvisiblegridlinesonly="false"
       empcolor="#0000a1"
       empopacity="0.25098039"
       color="#5555ff"
       opacity="0.1254902" />
  </sodipodi:namedview>
  <metadata
     id="metadata7">
    <rdf:RDF>
      <cc:Work
         rdf:about="">
        <dc:format>image/svg+xml</dc:format>
        <dc:type
           rdf:resource="http://purl.org/dc/dcmitype/StillImage" />
        <dc:title />
      </cc:Work>
    </rdf:RDF>
  </metadata>
  <g
     inkscape:label="Layer 1"
     inkscape:groupmode="layer"
     id="layer1">
    <rect
       style="fill:#edb667;fill-opacity:1;fill-rule:evenodd;stroke:none"
       id="mirror-1"
       width="5"
       height="5"
       x="-280"
       y="1057.3622" />
    <rect
       style="fill:#edb667;fill-opacity:1;fill-rule:evenodd;stroke:none"
       id="mirror-2"
       width="5"
       height="5"
       x="-279.91162"
       y="1072.3345" />
    <rect
       style="fill:#edb667;fill-opacity:1;fill-rule:evenodd;stroke:none"
       id="mirror-3"
       width="5"
       height="5"
       x="-270"
       y="1072.4229" />
    <rect
       style="fill:#edb667;fill-opacity:1;fill-rule:evenodd;stroke:none"
       id="mirror-4"
       width="5"
       height="5"
       x="-270.23743"
       y="1057.5389" />
    <rect
       style="fill:#edb667;fill-opacity:1;fill-rule:evenodd;stroke:none"
       id="mirror-5"
       width="5"
       height="5"
       x="-260"
       y="1057.5667" />
    <rect
       style="fill:#edb667;fill-opacity:1;fill-rule:evenodd;stroke:none"
       id="mirror-6"
       width="5"
       height="5"
       x="-260.02774"
       y="1072.2738" />
    <rect
       style="fill:#edb667;fill-opacity:1;fill-rule:evenodd;stroke:none"
       id="mirror-7"
       width="5"
       height="5"
       x="-250.17677"
       y="1072.2131" />
    <rect
       style="fill:#edb667;fill-opacity:1;fill-rule:evenodd;stroke:none"
       id="mirror-8"
       width="5"
       height="5"
       x="-230.02773"
       y="1057.6273" />
    <rect
       style="fill:#edb667;fill-opacity:1;fill-rule:evenodd;stroke:none"
       id="mirror-9"
       width="5"
       height="5"
       x="-250.02773"
       y="1057.4229" />
    <rect
       style="fill:#edb667;fill-opacity:1;fill-rule:evenodd;stroke:none"
       id="mirror-10"
       width="5"
       height="5"
       x="-240.02773"
       y="1057.4506" />
    <rect
       style="fill:#edb667;fill-opacity:1;fill-rule:evenodd;stroke:none"
       id="mirror-11"
       width="5"
       height="5"
       x="-240.11612"
       y="1072.3345" />
    <rect
       style="fill:#edb667;fill-opacity:1;fill-rule:evenodd;stroke:none"
       id="mirror-12"
       width="5"
       height="5"
       x="-230.08839"
       y="1072.3345" />
    <rect
       style="fill:#edb667;fill-opacity:1;fill-rule:evenodd;stroke:none"
       id="mirror-13"
       width="5"
       height="5"
       x="-219.91161"
       y="1072.2461" />
    <rect
       style="fill:#edb667;fill-opacity:1;fill-rule:evenodd;stroke:none"
       id="mirror-14"
       width="5"
       height="5"
       x="-210.11612"
       y="1072.2461" />
    <rect
       style="fill:#edb667;fill-opacity:1;fill-rule:evenodd;stroke:none"
       id="mirror-15"
       width="5"
       height="5"
       x="-220.02773"
       y="1057.7157" />
    <rect
       style="fill:#edb667;fill-rule:evenodd;stroke:none;stroke-width:1px;stroke-linecap:butt;stroke-linejoin:miter;stroke-opacity:1;fill-opacity:1"
       id="mirror-16"
       width="5"
       height="5"
       x="-210"
       y="1057.3622" />
    <rect
       style="fill:#edb667;fill-opacity:1;stroke:none"
       id="rect5432"
       width="85"
       height="10"
       x="-285"
       y="1062.3622" />
    <rect
       style="fill:#edd567;fill-opacity:1;stroke:none"
       id="rect5543"
       width="60"
       height="10"
       x="-80.152542"
       y="992.36218" />
    <rect
       style="fill:#edd567;fill-opacity:1;stroke:none"
       id="rect5541"
       width="10"
       height="20"
       x="-20"
       y="992.36218" />
    <rect
       style="fill:#edd567;fill-opacity:1;stroke:none"
       id="rect2999-6"
       width="10"
       height="50"
       x="-180.05806"
       y="982.2738" />
    <rect
       style="fill:#edd567;fill-opacity:1;stroke:none"
       id="rect5537"
       width="20"
       height="10"
       x="-170"
       y="1012.3622" />
    <rect
       style="fill:#d3ed67;fill-opacity:1;stroke:none;stroke-width:0.50000000000000000;stroke-miterlimit:4;stroke-opacity:1;stroke-dasharray:none"
       id="rect3791"
       width="40"
       height="40"
       x="-20"
       y="1012.3622" />
    <path
       style="fill:#ed7767;fill-opacity:1;stroke:none"
       d="m -189.875,1052.6122 9.875,-10.25 10,0 20,10.25 -0.0937,19.75 -19.90625,10 -10,0 -9.96875,-10 z"
       id="rect5438"
       inkscape:connector-curvature="0"
       sodipodi:nodetypes="ccccccccc" />
    <rect
       style="fill:#edb667;fill-opacity:1;stroke:none"
       id="rect5367"
       width="30"
       height="20"
       x="-150"
       y="1082.3622" />
    <rect
       style="fill:#edb667;fill-opacity:1;stroke:none"
       id="rect5365"
       width="10"
       height="10"
       x="-130"
       y="1072.3622" />
    <rect
       style="fill:#edb667;fill-opacity:1;stroke:none"
       id="rect5363"
       width="10"
       height="10"
       x="-110"
       y="1042.3622" />
    <rect
       style="fill:#edb667;fill-opacity:1;stroke:none"
       id="rect5361"
       width="50"
       height="30"
       x="-150"
       y="1012.3622" />
    <path
       style="fill:url(#pattern5359);fill-opacity:1;stroke:none"
       d="m -150.25,1056.3622 10,-4 0,20 -10,-4 z"
       id="rect3775"
       inkscape:connector-curvature="0"
       sodipodi:nodetypes="ccccc" />
    <rect
       style="fill:#edd467;fill-opacity:1;stroke:none"
       id="rect3003"
       width="80"
       height="20"
       x="-140"
       y="1052.3622" />
    <rect
       style="fill:#edd467;fill-opacity:1;stroke:none"
       id="rect3001"
       width="40"
       height="10"
       x="-70"
       y="1072.3622" />
    <rect
       style="fill:#edd567;fill-opacity:1;stroke:none"
       id="rect2999"
       width="10"
       height="50"
       x="-30"
       y="1032.3622" />
    <path
       style="fill:none;stroke:#000000;stroke-width:1px;stroke-linecap:butt;stroke-linejoin:miter;stroke-opacity:1"
       d="m -20,1012.3622 0,20 -10,0 0,40 -30,0 0,-20 -42,0 2,0 0,-40 -50,0 0,2 0,-2 -20,0 0,-20.00002 90,0 0,10.00002 60,0 0,10 2,0 z m -140,110 0,-20 -10,0 0,-20 20,-10 22,0 -2,0 0,10 -20,0 0,20 30,0 0,-30 -2,0 52,0 0,10 50,0 0,-30 40,0 0,-40 -32,0 2,0 0,-20.00002 -10,1e-5 0,-20.00001 c 10,0 10,0 10,0 l 0,-150 -22,0 2,0 0,-20 -20,0 0,2 0,-12 10,0 0,10 20,0 0,-30 -20,0 0,10 -10,0 0,-30 -2,0 52,0 0,-2 0,62 20,20 12,0 -2,0 0,50 -20,0 0,110 10,0 0,10.00002 40,0 0,-10.00002 10,0 0,-110 -20,0 0,-50 -2,0 12,0 20,-20 0,-12 0,2 10,0 0,60 10,0 0,10"
       id="path2987"
       inkscape:connector-curvature="0"
       sodipodi:nodetypes="cccccccccccccccccccccccccccccccccccccccccccccc" />
    <rect
       style="fill:#e17a1e;fill-rule:evenodd;stroke:#000000;stroke-width:0.50000000000000000;stroke-linecap:butt;stroke-linejoin:miter;stroke-opacity:1;stroke-miterlimit:4;stroke-dasharray:none;fill-opacity:1"
       id="rect3757"
       width="6"
       height="2"
       x="-18"
       y="1011.3622" />
    <rect
       style="fill:#e17a1e;fill-opacity:1;fill-rule:evenodd;stroke:#000000;stroke-width:0.5;stroke-linecap:butt;stroke-linejoin:miter;stroke-miterlimit:4;stroke-opacity:1;stroke-dasharray:none"
       id="rect3757-6"
       width="6"
       height="2"
       x="-128.25"
       y="1071.6122" />
    <rect
       style="fill:#e17a1e;fill-opacity:1;fill-rule:evenodd;stroke:#000000;stroke-width:0.50000000000000000;stroke-linecap:butt;stroke-linejoin:miter;stroke-miterlimit:4;stroke-opacity:1;stroke-dasharray:none"
       id="rect3757-4"
       width="6"
       height="2"
       x="-108.08839"
       y="1051.3345" />
    <rect
       style="fill:#e1bb1e;fill-opacity:1;fill-rule:evenodd;stroke:#000000;stroke-width:0.5;stroke-linecap:butt;stroke-linejoin:miter;stroke-miterlimit:4;stroke-opacity:1;stroke-dasharray:none"
       id="rect3757-67"
       width="6"
       height="2"
       x="-1020.1577"
       y="-150.91161"
       transform="matrix(0,-1,1,0,0,0)" />
    <path
       style="fill:none;stroke:#000000;stroke-width:1px;stroke-linecap:butt;stroke-linejoin:miter;stroke-opacity:1"
       d="m -108,1052.3622 c -2,0 -2,0 -2,0 l 0,-10 -40,0 0,-22 0,2 -20,0 0,20 20,10 z"
       id="path3773"
       inkscape:connector-curvature="0"
       sodipodi:nodetypes="cccccccccc" />
    <path
       style="fill:url(#pattern5308);fill-opacity:1;stroke:none"
       d="m -172.075,1082.4872 1.95,9.75 -9.75,0 1.95,-9.75 z"
       id="rect3775-0"
       inkscape:connector-curvature="0"
       sodipodi:nodetypes="ccccc" />
    <path
       style="fill:url(#pattern5340);fill-opacity:1;stroke:none"
       d="m -172.3,1042.2372 1.925,-9.875 -9.625,0 1.925,9.875 z"
       id="rect3775-0-1"
       inkscape:connector-curvature="0"
       sodipodi:nodetypes="ccccc" />
    <path
       style="fill:url(#pattern5403);fill-opacity:1;stroke:none"
       d="m -189.875,1064.5122 -9.875,-2.025 0,10.125 9.875,-2.025 z"
       id="rect3775-0-1-6"
       inkscape:connector-curvature="0"
       sodipodi:nodetypes="ccccc" />
    <path
       style="fill:none;stroke:#000000;stroke-width:1px;stroke-linecap:butt;stroke-linejoin:miter;stroke-opacity:1"
       d="m -180,1112.3622 0,-30 -10,-10 -15,0 0,5 -5,0 0,-5 -5,0 0,5 -5,0 0,-5 -5,0 0,5 -5,0 0,-5 -5,0 0,5 -5,0 0,-5 -5,0 0,5 -5,0 0,-5 -5,0 0,5 -5,0 0,-5 -5,0 0,5 -5,0 0,-5 -5,0 0,5 -5,0 0,-5 -5,0 0,20 10,0 0,-10 35,0 33,0 0,35 -13,0 0,20"
       id="path5424"
       inkscape:connector-curvature="0"
       sodipodi:nodetypes="cccccccccccccccccccccccccccccccccccccccccccc" />
    <path
       style="fill:none;stroke:#000000;stroke-width:1px;stroke-linecap:butt;stroke-linejoin:miter;stroke-opacity:1"
       d="m -205,1062.3622 15,0 0,-10 10,-10 0,-20 -60,0 0,20 15,0 0,-10 30,0 0,20 -90,0 0,10 5,0 0,-5 5,0 0,5 5,0 c 0,0 0,-4 0,-5 l 5,0 0,5 5,0 0,-5 5,0 0,5 5,0 0,-5 5,0 0,5 5,0 0,-5 5,0 0,5 5,0 0,-5 5,0 0,5 5,0 0,-5 5,0 0,5 5,0 0,-5 5,0 z"
       id="path5426"
       inkscape:connector-curvature="0"
       sodipodi:nodetypes="ccccccccccccccccccccccccccccccccccccccccccccc" />
    <text
       xml:space="preserve"
       style="font-size:6px;font-style:normal;font-variant:normal;font-weight:normal;font-stretch:normal;text-align:start;line-height:125%;letter-spacing:0px;word-spacing:0px;writing-mode:lr-tb;text-anchor:start;fill:#000000;fill-opacity:1;stroke:none;font-family:Sans;-inkscape-font-specification:Sans"
       x="-264"
       y="1068.3622"
       id="text5428"
       sodipodi:linespacing="125%"><tspan
         sodipodi:role="line"
         id="tspan5430"
         x="-264"
         y="1068.3622">Hall Of Mirrors</tspan></text>
    <text
       xml:space="preserve"
       style="font-size:6px;font-style:normal;font-variant:normal;font-weight:normal;font-stretch:normal;text-align:start;line-height:125%;letter-spacing:0px;word-spacing:0px;writing-mode:lr-tb;text-anchor:start;fill:#000000;fill-opacity:1;stroke:none;font-family:Sans;-inkscape-font-specification:Sans"
       x="-186"
       y="1063.3622"
       id="text5434"
       sodipodi:linespacing="125%"><tspan
         sodipodi:role="line"
         id="tspan5436"
         x="-186"
         y="1063.3622">Null Magic</tspan></text>
    <text
       xml:space="preserve"
       style="font-size:6px;font-style:normal;font-variant:normal;font-weight:normal;font-stretch:normal;text-align:start;line-height:125%;letter-spacing:0px;word-spacing:0px;writing-mode:lr-tb;text-anchor:start;fill:#000000;fill-opacity:1;stroke:none;font-family:Sans;-inkscape-font-specification:Sans"
       x="-148"
       y="1028.3622"
       id="text5441"
       sodipodi:linespacing="125%"><tspan
         sodipodi:role="line"
         id="tspan5443"
         x="-148"
         y="1028.3622">Demon Gate</tspan></text>
    <path
       style="fill:none;stroke:#000000;stroke-width:1;stroke-linecap:butt;stroke-linejoin:miter;stroke-opacity:1;stroke-miterlimit:4;stroke-dasharray:3,1;stroke-dashoffset:0"
       d="m -125,1042.3622 0,-30"
       id="path5445"
       inkscape:connector-curvature="0" />
    <text
       xml:space="preserve"
       style="font-size:6px;font-style:normal;font-variant:normal;font-weight:normal;font-stretch:normal;text-align:start;line-height:125%;letter-spacing:0px;word-spacing:0px;writing-mode:lr-tb;text-anchor:start;fill:#000000;fill-opacity:1;stroke:none;font-family:Sans;-inkscape-font-specification:Sans"
       x="-146"
       y="1090.3622"
       id="text5447"
       sodipodi:linespacing="125%"><tspan
         sodipodi:role="line"
         id="tspan5449"
         x="-146"
         y="1090.3622">Dexter</tspan><tspan
         sodipodi:role="line"
         x="-146"
         y="1097.8622"
         id="tspan5451">Dance</tspan></text>
    <text
       xml:space="preserve"
       style="font-size:6px;font-style:normal;font-variant:normal;font-weight:normal;font-stretch:normal;text-align:start;line-height:125%;letter-spacing:0px;word-spacing:0px;writing-mode:lr-tb;text-anchor:start;fill:#000000;fill-opacity:1;stroke:none;font-family:Sans;-inkscape-font-specification:Sans"
       x="-10"
       y="1030.3622"
       id="text5513"
       sodipodi:linespacing="125%"><tspan
         sodipodi:role="line"
         id="tspan5515"
         x="-10"
         y="1030.3622">Shield</tspan><tspan
         sodipodi:role="line"
         x="-10"
         y="1037.8622"
         id="tspan5517">Room</tspan></text>
    <path
       style="fill:none;stroke:#000000;stroke-width:1px;stroke-linecap:butt;stroke-linejoin:miter;stroke-opacity:1"
       d="m 20,892.36218 0,10 40,0 0,-10 z"
       id="path5539"
       inkscape:connector-curvature="0" />
  </g>
</svg>
